<?xml version="1.0" encoding="UTF-8" standalone="no"?><!DOCTYPE svg PUBLIC "-//W3C//DTD SVG 1.1//EN" "http://www.w3.org/Graphics/SVG/1.1/DTD/svg11.dtd"><svg width="100%" height="100%" viewBox="0 0 26 26" version="1.1" xmlns="http://www.w3.org/2000/svg" xmlns:xlink="http://www.w3.org/1999/xlink" xml:space="preserve" xmlns:serif="http://www.serif.com/" style="fill-rule:evenodd;clip-rule:evenodd;stroke-linejoin:round;stroke-miterlimit:2;"><path d="M12.998,0c-7.178,0 -12.998,5.82 -12.998,12.998c0,6.439 4.686,11.771 10.83,12.803l0,-10.091l-3.135,0l-0,-3.631l3.135,-0l0,-2.678c0,-3.107 1.898,-4.8 4.67,-4.8c1.328,-0 2.468,0.099 2.8,0.142l-0,3.248l-1.923,0.001c-1.507,-0 -1.798,0.716 -1.798,1.767l0,2.318l3.597,-0l-0.469,3.631l-3.128,0l0,10.18c6.431,-0.783 11.417,-6.251 11.417,-12.893c0,-7.175 -5.819,-12.995 -12.998,-12.995Z" style="fill:#5c728f;fill-rule:nonzero;"/></svg>