<?xml version="1.0" encoding="UTF-8" standalone="no"?><!DOCTYPE svg PUBLIC "-//W3C//DTD SVG 1.1//EN" "http://www.w3.org/Graphics/SVG/1.1/DTD/svg11.dtd"><svg width="100%" height="100%" viewBox="0 0 26 26" version="1.1" xmlns="http://www.w3.org/2000/svg" xmlns:xlink="http://www.w3.org/1999/xlink" xml:space="preserve" xmlns:serif="http://www.serif.com/" style="fill-rule:evenodd;clip-rule:evenodd;stroke-linejoin:round;stroke-miterlimit:2;"><g><g><path d="M18.207,12.944c0,2.907 -2.356,5.263 -5.263,5.263c-2.906,-0 -5.263,-2.356 -5.263,-5.263c0,-2.907 2.357,-5.263 5.263,-5.263c2.907,-0 5.263,2.356 5.263,5.263Z" style="fill:#5c728f;fill-rule:nonzero;"/><path d="M25.252,3.632c-0.253,-0.685 -0.656,-1.306 -1.181,-1.815c-0.509,-0.525 -1.129,-0.928 -1.815,-1.181c-0.556,-0.216 -1.392,-0.474 -2.932,-0.544c-1.665,-0.076 -2.164,-0.092 -6.38,-0.092c-4.216,-0 -4.715,0.016 -6.38,0.092c-1.539,0.07 -2.376,0.328 -2.931,0.544c-0.686,0.253 -1.307,0.656 -1.816,1.181c-0.524,0.509 -0.928,1.129 -1.181,1.815c-0.216,0.556 -0.474,1.393 -0.544,2.932c-0.076,1.665 -0.092,2.164 -0.092,6.38c-0,4.216 0.016,4.715 0.092,6.38c0.07,1.54 0.328,2.376 0.544,2.932c0.253,0.686 0.656,1.306 1.181,1.815c0.509,0.525 1.129,0.928 1.815,1.181c0.556,0.217 1.393,0.474 2.932,0.544c1.665,0.076 2.164,0.092 6.38,0.092c4.216,0 4.716,-0.016 6.38,-0.092c1.539,-0.07 2.376,-0.327 2.932,-0.544c1.377,-0.531 2.465,-1.619 2.996,-2.996c0.217,-0.556 0.474,-1.392 0.544,-2.932c0.076,-1.665 0.092,-2.164 0.092,-6.38c0,-4.216 -0.016,-4.715 -0.092,-6.38c-0.07,-1.539 -0.327,-2.376 -0.544,-2.932Zm-12.308,17.419c-4.478,0 -8.108,-3.629 -8.108,-8.107c0,-4.478 3.63,-8.108 8.108,-8.108c4.478,0 8.108,3.63 8.108,8.108c-0,4.478 -3.63,8.107 -8.108,8.107Zm8.428,-14.641c-1.046,0 -1.894,-0.848 -1.894,-1.894c-0,-1.047 0.848,-1.895 1.894,-1.895c1.047,-0 1.895,0.848 1.895,1.895c-0,1.046 -0.848,1.894 -1.895,1.894Z" style="fill:#5c728f;fill-rule:nonzero;"/></g></g></svg>