<?xml version="1.0" encoding="UTF-8" standalone="no"?><!DOCTYPE svg PUBLIC "-//W3C//DTD SVG 1.1//EN" "http://www.w3.org/Graphics/SVG/1.1/DTD/svg11.dtd"><svg width="100%" height="100%" viewBox="0 0 151 104" version="1.1" xmlns="http://www.w3.org/2000/svg" xmlns:xlink="http://www.w3.org/1999/xlink" xml:space="preserve" xmlns:serif="http://www.serif.com/" style="fill-rule:evenodd;clip-rule:evenodd;stroke-linejoin:round;stroke-miterlimit:2;"><g><g><path d="M8.621,4.311l-4.31,-4.311l-4.311,4.311l4.311,4.31l4.31,-4.31Z" style="fill:#743922;"/><path d="M16.492,12.181l-4.311,-4.311l-4.311,4.311l4.311,4.311l4.311,-4.311Z" style="fill:#743922;"/><path d="M8.633,20.051l-4.311,-4.311l-4.311,4.311l4.311,4.311l4.311,-4.311Z" style="fill:#743922;"/><path d="M24.362,20.051l-4.311,-4.311l-4.311,4.311l4.311,4.311l4.311,-4.311Z" style="fill:#743922;"/><path d="M16.503,27.921l-4.311,-4.311l-4.311,4.311l4.311,4.311l4.311,-4.311Z" style="fill:#743922;"/><path d="M32.232,27.921l-4.311,-4.311l-4.311,4.311l4.311,4.311l4.311,-4.311Z" style="fill:#743922;"/><path d="M8.644,35.791l-4.311,-4.31l-4.31,4.31l4.31,4.311l4.311,-4.311Z" style="fill:#743922;"/><path d="M24.373,35.791l-4.311,-4.31l-4.31,4.31l4.31,4.311l4.311,-4.311Z" style="fill:#743922;"/><path d="M40.102,35.791l-4.311,-4.31l-4.31,4.31l4.31,4.311l4.311,-4.311Z" style="fill:#743922;"/><path d="M16.514,43.661l-4.311,-4.31l-4.31,4.31l4.31,4.311l4.311,-4.311Z" style="fill:#743922;"/><path d="M32.243,43.661l-4.311,-4.31l-4.31,4.31l4.31,4.311l4.311,-4.311Z" style="fill:#743922;"/><path d="M47.972,43.661l-4.311,-4.31l-4.31,4.31l4.31,4.311l4.311,-4.311Z" style="fill:#743922;"/><path d="M8.655,51.532l-4.311,-4.311l-4.31,4.311l4.31,4.31l4.311,-4.31Z" style="fill:#743922;"/><path d="M24.384,51.532l-4.31,-4.311l-4.311,4.311l4.311,4.31l4.31,-4.31Z" style="fill:#743922;"/><path d="M40.113,51.532l-4.31,-4.311l-4.311,4.311l4.311,4.31l4.31,-4.31Z" style="fill:#743922;"/><path d="M16.525,59.402l-4.31,-4.311l-4.311,4.311l4.311,4.31l4.31,-4.31Z" style="fill:#743922;"/><path d="M32.254,59.402l-4.31,-4.311l-4.311,4.311l4.311,4.31l4.31,-4.31Z" style="fill:#743922;"/><path d="M47.983,59.402l-4.31,-4.311l-4.311,4.311l4.311,4.31l4.31,-4.31Z" style="fill:#743922;"/><path d="M24.395,67.272l-4.31,-4.311l-4.311,4.311l4.311,4.311l4.31,-4.311Z" style="fill:#743922;"/><path d="M40.125,67.272l-4.311,-4.311l-4.311,4.311l4.311,4.311l4.311,-4.311Z" style="fill:#743922;"/><path d="M32.266,75.142l-4.311,-4.311l-4.311,4.311l4.311,4.311l4.311,-4.311Z" style="fill:#743922;"/><path d="M47.995,75.142l-4.311,-4.311l-4.311,4.311l4.311,4.311l4.311,-4.311Z" style="fill:#743922;"/><path d="M40.136,83.012l-4.311,-4.31l-4.311,4.31l4.311,4.311l4.311,-4.311Z" style="fill:#743922;"/><path d="M48.006,90.882l-4.311,-4.31l-4.31,4.31l4.31,4.311l4.311,-4.311Z" style="fill:#743922;"/></g><g><path d="M150.183,4.311l-4.311,-4.311l-4.31,4.311l4.31,4.31l4.311,-4.31Z" style="fill:#9dc3e6;"/><path d="M142.324,12.181l-4.311,-4.311l-4.31,4.311l4.31,4.311l4.311,-4.311Z" style="fill:#9dc3e6;"/><path d="M134.465,20.051l-4.311,-4.311l-4.31,4.311l4.31,4.311l4.311,-4.311Z" style="fill:#9dc3e6;"/><path d="M150.194,20.051l-4.311,-4.311l-4.31,4.311l4.31,4.311l4.311,-4.311Z" style="fill:#9dc3e6;"/><path d="M126.606,27.921l-4.311,-4.311l-4.31,4.311l4.31,4.311l4.311,-4.311Z" style="fill:#9dc3e6;"/><path d="M142.335,27.921l-4.31,-4.311l-4.311,4.311l4.311,4.311l4.31,-4.311Z" style="fill:#9dc3e6;"/><path d="M118.747,35.791l-4.31,-4.31l-4.311,4.31l4.311,4.311l4.31,-4.311Z" style="fill:#9dc3e6;"/><path d="M134.476,35.791l-4.31,-4.31l-4.311,4.31l4.311,4.311l4.31,-4.311Z" style="fill:#9dc3e6;"/><path d="M150.205,35.791l-4.31,-4.31l-4.311,4.31l4.311,4.311l4.31,-4.311Z" style="fill:#9dc3e6;"/><path d="M110.888,43.661l-4.31,-4.31l-4.311,4.31l4.311,4.311l4.31,-4.311Z" style="fill:#9dc3e6;"/><path d="M126.617,43.661l-4.31,-4.31l-4.311,4.31l4.311,4.311l4.31,-4.311Z" style="fill:#9dc3e6;"/><path d="M142.346,43.661l-4.31,-4.31l-4.311,4.31l4.311,4.311l4.31,-4.311Z" style="fill:#9dc3e6;"/><path d="M118.759,51.532l-4.311,-4.311l-4.311,4.311l4.311,4.31l4.311,-4.31Z" style="fill:#9dc3e6;"/><path d="M134.488,51.532l-4.311,-4.311l-4.311,4.311l4.311,4.31l4.311,-4.31Z" style="fill:#9dc3e6;"/><path d="M150.217,51.532l-4.311,-4.311l-4.311,4.311l4.311,4.31l4.311,-4.31Z" style="fill:#9dc3e6;"/><path d="M110.9,59.402l-4.311,-4.311l-4.311,4.311l4.311,4.31l4.311,-4.31Z" style="fill:#9dc3e6;"/><path d="M126.629,59.402l-4.311,-4.311l-4.311,4.311l4.311,4.31l4.311,-4.31Z" style="fill:#9dc3e6;"/><path d="M142.358,59.402l-4.311,-4.311l-4.311,4.311l4.311,4.31l4.311,-4.31Z" style="fill:#9dc3e6;"/><path d="M118.77,67.272l-4.311,-4.311l-4.311,4.311l4.311,4.311l4.311,-4.311Z" style="fill:#9dc3e6;"/><path d="M134.499,67.272l-4.311,-4.311l-4.31,4.311l4.31,4.311l4.311,-4.311Z" style="fill:#9dc3e6;"/><path d="M110.911,75.142l-4.311,-4.311l-4.31,4.311l4.31,4.311l4.311,-4.311Z" style="fill:#9dc3e6;"/><path d="M126.64,75.142l-4.311,-4.311l-4.31,4.311l4.31,4.311l4.311,-4.311Z" style="fill:#9dc3e6;"/><path d="M118.781,83.012l-4.311,-4.31l-4.31,4.31l4.31,4.311l4.311,-4.311Z" style="fill:#9dc3e6;"/><path d="M110.922,90.882l-4.31,-4.31l-4.311,4.31l4.311,4.311l4.31,-4.311Z" style="fill:#9dc3e6;"/></g><g><path d="M79.419,27.921l-4.311,-4.311l-4.31,4.311l4.31,4.311l4.311,-4.311Z" style="fill:#743922;"/><path d="M87.289,35.791l-4.311,-4.31l-4.31,4.31l4.31,4.311l4.311,-4.311Z" style="fill:#743922;"/><path d="M79.43,43.661l-4.31,-4.31l-4.311,4.31l4.311,4.311l4.31,-4.311Z" style="fill:#743922;"/><path d="M95.159,43.661l-4.31,-4.31l-4.311,4.31l4.311,4.311l4.31,-4.311Z" style="fill:#743922;"/><path d="M87.3,51.532l-4.31,-4.311l-4.311,4.311l4.311,4.31l4.31,-4.31Z" style="fill:#743922;"/><path d="M103.029,51.532l-4.31,-4.311l-4.311,4.311l4.311,4.31l4.31,-4.31Z" style="fill:#743922;"/><path d="M79.442,59.402l-4.311,-4.311l-4.311,4.311l4.311,4.31l4.311,-4.31Z" style="fill:#743922;"/><path d="M95.171,59.402l-4.311,-4.311l-4.311,4.311l4.311,4.31l4.311,-4.31Z" style="fill:#743922;"/><path d="M87.312,67.272l-4.311,-4.311l-4.311,4.311l4.311,4.311l4.311,-4.311Z" style="fill:#743922;"/><path d="M103.041,67.272l-4.311,-4.311l-4.311,4.311l4.311,4.311l4.311,-4.311Z" style="fill:#743922;"/><path d="M79.453,75.142l-4.311,-4.311l-4.311,4.311l4.311,4.311l4.311,-4.311Z" style="fill:#743922;"/><path d="M95.182,75.142l-4.311,-4.311l-4.31,4.311l4.31,4.311l4.311,-4.311Z" style="fill:#743922;"/><path d="M87.323,83.012l-4.311,-4.31l-4.31,4.31l4.31,4.311l4.311,-4.311Z" style="fill:#743922;"/><path d="M103.052,83.012l-4.311,-4.31l-4.31,4.31l4.31,4.311l4.311,-4.311Z" style="fill:#743922;"/><path d="M95.193,90.882l-4.311,-4.31l-4.31,4.31l4.31,4.311l4.311,-4.311Z" style="fill:#743922;"/><path d="M103.063,98.753l-4.31,-4.311l-4.311,4.311l4.311,4.31l4.31,-4.31Z" style="fill:#743922;"/></g><g><path d="M71.56,35.791l-4.311,-4.31l-4.31,4.31l4.31,4.311l4.311,-4.311Z" style="fill:#9dc3e6;"/><path d="M63.701,43.661l-4.31,-4.31l-4.311,4.31l4.311,4.311l4.31,-4.311Z" style="fill:#9dc3e6;"/><path d="M55.842,51.532l-4.31,-4.311l-4.311,4.311l4.311,4.31l4.31,-4.31Z" style="fill:#9dc3e6;"/><path d="M71.571,51.532l-4.31,-4.311l-4.311,4.311l4.311,4.31l4.31,-4.31Z" style="fill:#9dc3e6;"/><path d="M63.712,59.402l-4.31,-4.311l-4.311,4.311l4.311,4.31l4.31,-4.31Z" style="fill:#9dc3e6;"/><path d="M55.854,67.272l-4.311,-4.311l-4.311,4.311l4.311,4.311l4.311,-4.311Z" style="fill:#9dc3e6;"/><path d="M71.583,67.272l-4.311,-4.311l-4.311,4.311l4.311,4.311l4.311,-4.311Z" style="fill:#9dc3e6;"/><path d="M63.724,75.142l-4.311,-4.311l-4.311,4.311l4.311,4.311l4.311,-4.311Z" style="fill:#9dc3e6;"/><path d="M55.865,83.012l-4.311,-4.31l-4.311,4.31l4.311,4.311l4.311,-4.311Z" style="fill:#9dc3e6;"/><path d="M71.594,83.012l-4.311,-4.31l-4.31,4.31l4.31,4.311l4.311,-4.311Z" style="fill:#9dc3e6;"/><path d="M63.735,90.882l-4.311,-4.31l-4.31,4.31l4.31,4.311l4.311,-4.311Z" style="fill:#9dc3e6;"/><path d="M55.876,98.753l-4.311,-4.311l-4.31,4.311l4.31,4.31l4.311,-4.31Z" style="fill:#9dc3e6;"/></g></g></svg>