<?xml version="1.0" encoding="UTF-8" standalone="no"?><!DOCTYPE svg PUBLIC "-//W3C//DTD SVG 1.1//EN" "http://www.w3.org/Graphics/SVG/1.1/DTD/svg11.dtd"><svg width="100%" height="100%" viewBox="0 0 383 65" version="1.1" xmlns="http://www.w3.org/2000/svg" xmlns:xlink="http://www.w3.org/1999/xlink" xml:space="preserve" xmlns:serif="http://www.serif.com/" style="fill-rule:evenodd;clip-rule:evenodd;stroke-linecap:square;stroke-linejoin:round;stroke-miterlimit:1.5;"><g><g><text x="182.344px" y="59.83px" style="font-family:'BrandonGrotesque-Bold', 'Brandon Grotesque', sans-serif;font-weight:450;font-size:78.318px;fill:#743922;">W<tspan x="256.277px 311.178px " y="59.83px 59.83px ">AT</tspan></text><g transform="matrix(6.12323e-17,-1,1,6.12323e-17,-3267.51,3639.43)"><text x="3578.68px" y="3643.34px" style="font-family:'BrandonGrotesque-Regular', 'Brandon Grotesque', sans-serif;font-weight:390;font-size:20.152px;fill:#743922;">d<tspan x="3589.91px 3600.63px 3609.32px 3615.08px 3625.84px " y="3643.34px 3643.34px 3643.34px 3643.34px 3643.34px ">esign</tspan></text></g><path d="M139.297,1.041l-0,62.756" style="fill:none;stroke:#743922;stroke-width:1.47px;"/><g><g><path d="M5.382,2.942l-2.691,-2.691l-2.691,2.691l2.691,2.691l2.691,-2.691Z" style="fill:#743922;"/><path d="M10.295,7.854l-2.691,-2.69l-2.691,2.69l2.691,2.691l2.691,-2.691Z" style="fill:#743922;"/><path d="M5.389,12.767l-2.691,-2.691l-2.691,2.691l2.691,2.691l2.691,-2.691Z" style="fill:#743922;"/><path d="M15.207,12.767l-2.69,-2.691l-2.691,2.691l2.691,2.691l2.69,-2.691Z" style="fill:#743922;"/><path d="M10.302,17.68l-2.691,-2.691l-2.691,2.691l2.691,2.691l2.691,-2.691Z" style="fill:#743922;"/><path d="M20.12,17.68l-2.691,-2.691l-2.69,2.691l2.69,2.691l2.691,-2.691Z" style="fill:#743922;"/><path d="M5.396,22.593l-2.691,-2.691l-2.691,2.691l2.691,2.691l2.691,-2.691Z" style="fill:#743922;"/><path d="M15.215,22.593l-2.691,-2.691l-2.691,2.691l2.691,2.691l2.691,-2.691Z" style="fill:#743922;"/><path d="M25.033,22.593l-2.691,-2.691l-2.691,2.691l2.691,2.691l2.691,-2.691Z" style="fill:#743922;"/><path d="M10.309,27.506l-2.691,-2.691l-2.691,2.691l2.691,2.691l2.691,-2.691Z" style="fill:#743922;"/><path d="M20.127,27.506l-2.691,-2.691l-2.69,2.691l2.69,2.691l2.691,-2.691Z" style="fill:#743922;"/><path d="M29.946,27.506l-2.691,-2.691l-2.691,2.691l2.691,2.691l2.691,-2.691Z" style="fill:#743922;"/><path d="M5.403,32.419l-2.691,-2.691l-2.691,2.691l2.691,2.691l2.691,-2.691Z" style="fill:#743922;"/><path d="M15.222,32.419l-2.691,-2.691l-2.691,2.691l2.691,2.691l2.691,-2.691Z" style="fill:#743922;"/><path d="M25.04,32.419l-2.691,-2.691l-2.691,2.691l2.691,2.691l2.691,-2.691Z" style="fill:#743922;"/><path d="M10.316,37.332l-2.691,-2.691l-2.691,2.691l2.691,2.691l2.691,-2.691Z" style="fill:#743922;"/><path d="M20.134,37.332l-2.69,-2.691l-2.691,2.691l2.691,2.691l2.69,-2.691Z" style="fill:#743922;"/><path d="M29.953,37.332l-2.691,-2.691l-2.691,2.691l2.691,2.691l2.691,-2.691Z" style="fill:#743922;"/><path d="M15.229,42.244l-2.691,-2.69l-2.691,2.69l2.691,2.691l2.691,-2.691Z" style="fill:#743922;"/><path d="M25.047,42.244l-2.691,-2.69l-2.691,2.69l2.691,2.691l2.691,-2.691Z" style="fill:#743922;"/><path d="M20.141,47.157l-2.69,-2.691l-2.691,2.691l2.691,2.691l2.69,-2.691Z" style="fill:#743922;"/><path d="M29.96,47.157l-2.691,-2.691l-2.691,2.691l2.691,2.691l2.691,-2.691Z" style="fill:#743922;"/><path d="M25.054,52.07l-2.691,-2.691l-2.69,2.691l2.69,2.691l2.691,-2.691Z" style="fill:#743922;"/><path d="M29.967,56.983l-2.691,-2.691l-2.691,2.691l2.691,2.691l2.691,-2.691Z" style="fill:#743922;"/></g><g><path d="M93.75,2.942l-2.691,-2.691l-2.691,2.691l2.691,2.691l2.691,-2.691Z" style="fill:#9dc3e6;"/><path d="M88.844,7.854l-2.691,-2.69l-2.691,2.69l2.691,2.691l2.691,-2.691Z" style="fill:#9dc3e6;"/><path d="M83.938,12.767l-2.691,-2.691l-2.691,2.691l2.691,2.691l2.691,-2.691Z" style="fill:#9dc3e6;"/><path d="M93.757,12.767l-2.691,-2.691l-2.691,2.691l2.691,2.691l2.691,-2.691Z" style="fill:#9dc3e6;"/><path d="M79.032,17.68l-2.69,-2.691l-2.691,2.691l2.691,2.691l2.69,-2.691Z" style="fill:#9dc3e6;"/><path d="M88.851,17.68l-2.691,-2.691l-2.691,2.691l2.691,2.691l2.691,-2.691Z" style="fill:#9dc3e6;"/><path d="M74.127,22.593l-2.691,-2.691l-2.691,2.691l2.691,2.691l2.691,-2.691Z" style="fill:#9dc3e6;"/><path d="M83.945,22.593l-2.691,-2.691l-2.69,2.691l2.69,2.691l2.691,-2.691Z" style="fill:#9dc3e6;"/><path d="M93.764,22.593l-2.691,-2.691l-2.691,2.691l2.691,2.691l2.691,-2.691Z" style="fill:#9dc3e6;"/><path d="M69.221,27.506l-2.691,-2.691l-2.691,2.691l2.691,2.691l2.691,-2.691Z" style="fill:#9dc3e6;"/><path d="M79.039,27.506l-2.69,-2.691l-2.691,2.691l2.691,2.691l2.69,-2.691Z" style="fill:#9dc3e6;"/><path d="M88.858,27.506l-2.691,-2.691l-2.691,2.691l2.691,2.691l2.691,-2.691Z" style="fill:#9dc3e6;"/><path d="M74.134,32.419l-2.691,-2.691l-2.691,2.691l2.691,2.691l2.691,-2.691Z" style="fill:#9dc3e6;"/><path d="M83.952,32.419l-2.691,-2.691l-2.69,2.691l2.69,2.691l2.691,-2.691Z" style="fill:#9dc3e6;"/><path d="M93.771,32.419l-2.691,-2.691l-2.691,2.691l2.691,2.691l2.691,-2.691Z" style="fill:#9dc3e6;"/><path d="M69.228,37.332l-2.691,-2.691l-2.691,2.691l2.691,2.691l2.691,-2.691Z" style="fill:#9dc3e6;"/><path d="M79.046,37.332l-2.69,-2.691l-2.691,2.691l2.691,2.691l2.69,-2.691Z" style="fill:#9dc3e6;"/><path d="M88.865,37.332l-2.691,-2.691l-2.691,2.691l2.691,2.691l2.691,-2.691Z" style="fill:#9dc3e6;"/><path d="M74.141,42.244l-2.691,-2.69l-2.691,2.69l2.691,2.691l2.691,-2.691Z" style="fill:#9dc3e6;"/><path d="M83.959,42.244l-2.691,-2.69l-2.69,2.69l2.69,2.691l2.691,-2.691Z" style="fill:#9dc3e6;"/><path d="M69.235,47.157l-2.691,-2.691l-2.691,2.691l2.691,2.691l2.691,-2.691Z" style="fill:#9dc3e6;"/><path d="M79.054,47.157l-2.691,-2.691l-2.691,2.691l2.691,2.691l2.691,-2.691Z" style="fill:#9dc3e6;"/><path d="M74.148,52.07l-2.691,-2.691l-2.691,2.691l2.691,2.691l2.691,-2.691Z" style="fill:#9dc3e6;"/><path d="M69.242,56.983l-2.691,-2.691l-2.691,2.691l2.691,2.691l2.691,-2.691Z" style="fill:#9dc3e6;"/></g><g><path d="M49.576,17.68l-2.691,-2.691l-2.69,2.691l2.69,2.691l2.691,-2.691Z" style="fill:#743922;"/><path d="M54.489,22.593l-2.691,-2.691l-2.691,2.691l2.691,2.691l2.691,-2.691Z" style="fill:#743922;"/><path d="M49.583,27.506l-2.69,-2.691l-2.691,2.691l2.691,2.691l2.69,-2.691Z" style="fill:#743922;"/><path d="M59.402,27.506l-2.691,-2.691l-2.691,2.691l2.691,2.691l2.691,-2.691Z" style="fill:#743922;"/><path d="M54.496,32.419l-2.691,-2.691l-2.691,2.691l2.691,2.691l2.691,-2.691Z" style="fill:#743922;"/><path d="M64.315,32.419l-2.691,-2.691l-2.691,2.691l2.691,2.691l2.691,-2.691Z" style="fill:#743922;"/><path d="M49.59,37.332l-2.69,-2.691l-2.691,2.691l2.691,2.691l2.69,-2.691Z" style="fill:#743922;"/><path d="M59.409,37.332l-2.691,-2.691l-2.691,2.691l2.691,2.691l2.691,-2.691Z" style="fill:#743922;"/><path d="M54.503,42.244l-2.691,-2.69l-2.69,2.69l2.69,2.691l2.691,-2.691Z" style="fill:#743922;"/><path d="M64.322,42.244l-2.691,-2.69l-2.691,2.69l2.691,2.691l2.691,-2.691Z" style="fill:#743922;"/><path d="M49.597,47.157l-2.69,-2.691l-2.691,2.691l2.691,2.691l2.69,-2.691Z" style="fill:#743922;"/><path d="M59.416,47.157l-2.691,-2.691l-2.691,2.691l2.691,2.691l2.691,-2.691Z" style="fill:#743922;"/><path d="M54.51,52.07l-2.691,-2.691l-2.69,2.691l2.69,2.691l2.691,-2.691Z" style="fill:#743922;"/><path d="M64.329,52.07l-2.691,-2.691l-2.691,2.691l2.691,2.691l2.691,-2.691Z" style="fill:#743922;"/><path d="M59.423,56.983l-2.691,-2.691l-2.691,2.691l2.691,2.691l2.691,-2.691Z" style="fill:#743922;"/><path d="M64.336,61.896l-2.691,-2.691l-2.691,2.691l2.691,2.691l2.691,-2.691Z" style="fill:#743922;"/></g><g><path d="M44.671,22.593l-2.691,-2.691l-2.691,2.691l2.691,2.691l2.691,-2.691Z" style="fill:#9dc3e6;"/><path d="M39.765,27.506l-2.691,-2.691l-2.691,2.691l2.691,2.691l2.691,-2.691Z" style="fill:#9dc3e6;"/><path d="M34.859,32.419l-2.691,-2.691l-2.691,2.691l2.691,2.691l2.691,-2.691Z" style="fill:#9dc3e6;"/><path d="M44.678,32.419l-2.691,-2.691l-2.691,2.691l2.691,2.691l2.691,-2.691Z" style="fill:#9dc3e6;"/><path d="M39.772,37.332l-2.691,-2.691l-2.691,2.691l2.691,2.691l2.691,-2.691Z" style="fill:#9dc3e6;"/><path d="M34.866,42.244l-2.691,-2.69l-2.691,2.69l2.691,2.691l2.691,-2.691Z" style="fill:#9dc3e6;"/><path d="M44.685,42.244l-2.691,-2.69l-2.691,2.69l2.691,2.691l2.691,-2.691Z" style="fill:#9dc3e6;"/><path d="M39.779,47.157l-2.691,-2.691l-2.691,2.691l2.691,2.691l2.691,-2.691Z" style="fill:#9dc3e6;"/><path d="M34.873,52.07l-2.691,-2.691l-2.691,2.691l2.691,2.691l2.691,-2.691Z" style="fill:#9dc3e6;"/><path d="M44.692,52.07l-2.691,-2.691l-2.691,2.691l2.691,2.691l2.691,-2.691Z" style="fill:#9dc3e6;"/><path d="M39.786,56.983l-2.691,-2.691l-2.691,2.691l2.691,2.691l2.691,-2.691Z" style="fill:#9dc3e6;"/><path d="M34.88,61.896l-2.691,-2.691l-2.691,2.691l2.691,2.691l2.691,-2.691Z" style="fill:#9dc3e6;"/></g></g></g></g></svg>